<?xml version="1.0" standalone="no"?>
<!DOCTYPE svg PUBLIC "-//W3C//DTD SVG 20010904//EN"
 "http://www.w3.org/TR/2001/REC-SVG-20010904/DTD/svg10.dtd">
<svg version="1.0" xmlns="http://www.w3.org/2000/svg"
 width="1280.000000pt" height="537.000000pt" viewBox="0 0 1280.000000 537.000000"
 preserveAspectRatio="xMidYMid meet">
<metadata>
Created by potrace 1.15, written by Peter Selinger 2001-2017
</metadata>
<g transform="translate(0.000000,537.000000) scale(0.100000,-0.100000)"
fill="#000000" stroke="none">
<path d="M11434 4240 l-90 -91 -81 76 -81 75 -4810 0 -4810 0 -88 -84 -89 -84
-92 91 -93 92 -84 -84 -84 -84 -49 43 c-122 107 -269 135 -419 79 -44 -17 -76
-39 -125 -88 -87 -88 -113 -150 -114 -277 0 -84 2 -95 38 -166 43 -87 98 -142
186 -185 50 -25 67 -28 161 -28 93 0 112 3 162 27 32 15 80 48 108 74 l51 48
87 -87 87 -87 91 91 92 91 85 -81 84 -81 4819 0 4819 0 80 80 c44 44 84 80 90
80 5 0 45 -35 87 -77 l78 -78 85 85 85 84 52 -54 c33 -33 78 -65 118 -84 59
-28 74 -31 165 -31 91 0 106 3 165 31 159 76 247 240 219 413 -20 130 -101
235 -227 294 -60 28 -77 32 -157 32 -80 0 -97 -4 -157 -32 -37 -17 -87 -50
-113 -74 l-46 -43 -92 92 c-51 51 -95 92 -97 92 -3 0 -46 -41 -96 -90z
m-10589 -56 c28 -13 67 -40 89 -60 l38 -36 -88 -89 -89 -89 90 -91 90 -91 -50
-44 c-162 -144 -408 -94 -497 101 -28 61 -30 179 -5 235 75 169 263 242 422
164z m10375 -29 l65 -66 -84 -82 -83 -82 91 -87 c50 -48 91 -91 91 -96 0 -5
-33 -39 -74 -75 l-74 -67 -4781 0 -4781 0 -73 69 -72 70 83 83 82 83 -80 80
c-44 44 -80 82 -80 86 0 4 33 39 73 78 l72 71 4780 0 4781 0 64 -65z m379 1
l63 -63 -64 -56 c-35 -32 -67 -57 -71 -57 -5 0 -35 26 -68 57 l-60 57 63 63
c34 35 65 63 68 63 3 0 34 -29 69 -64z m567 30 c64 -29 120 -86 151 -154 22
-46 25 -64 21 -135 -5 -127 -57 -209 -170 -269 -36 -19 -59 -23 -133 -23 -80
0 -96 3 -141 28 -29 16 -71 49 -95 73 l-43 44 89 90 90 90 -80 81 -80 80 40
35 c108 94 231 115 351 60z m-10846 -109 c0 -12 -92 -96 -105 -97 -6 0 -35 25
-65 55 l-54 55 54 55 54 55 58 -57 c32 -32 58 -61 58 -66z m-231 -219 l-62
-69 -59 58 -58 57 62 63 61 62 59 -51 58 -50 -61 -70z m10328 110 l61 -63 -57
-52 -58 -52 -63 64 -64 65 49 50 c27 27 54 50 60 50 6 0 38 -28 72 -62z m358
12 l49 -50 -59 -61 -60 -60 -53 58 -53 58 54 52 c31 29 59 53 64 53 5 0 31
-23 58 -50z m-10336 -126 l-56 -56 -57 53 -57 52 58 59 58 58 55 -55 55 -55
-56 -56z m-176 -176 l-63 -63 -55 55 c-30 30 -55 59 -55 64 0 6 26 36 57 68
l58 58 60 -60 60 -60 -62 -62z m10377 73 c0 -3 -25 -31 -55 -61 l-55 -55 -52
53 -53 52 60 61 60 60 48 -51 c26 -28 47 -55 47 -59z"/>
<path d="M11433 1878 l-92 -92 -79 77 -80 77 -4807 0 -4807 0 -91 -85 -92 -85
-92 92 -93 93 -85 -85 -84 -84 -48 41 c-87 73 -145 96 -253 101 -80 3 -104 0
-153 -18 -272 -102 -344 -454 -132 -649 155 -143 392 -142 536 3 l44 45 88
-87 87 -87 93 92 92 92 90 -84 90 -84 4809 -1 4808 0 91 86 90 86 81 -81 81
-81 85 85 86 85 58 -56 c162 -157 401 -160 556 -4 226 225 96 616 -218 658
-120 17 -217 -12 -316 -92 l-58 -48 -92 91 c-50 50 -94 91 -96 91 -3 0 -47
-41 -97 -92z m159 -210 l-62 -63 -65 65 -65 64 62 63 63 63 65 -65 65 -65 -63
-62z m-10744 153 c24 -12 61 -38 83 -58 l40 -36 -85 -86 c-47 -48 -86 -91 -86
-96 0 -6 38 -48 85 -95 l85 -84 -36 -37 c-57 -58 -116 -83 -210 -87 -66 -3
-91 0 -129 17 -77 34 -121 76 -157 149 -42 86 -45 177 -9 260 28 63 112 143
173 166 63 23 190 16 246 -13z m10372 -30 l65 -60 -82 -83 -83 -83 93 -93 92
-93 -78 -75 -79 -74 -4775 0 -4776 0 -76 75 -76 74 82 83 83 83 -82 82 -83 83
70 70 69 70 4786 0 4785 0 65 -59z m926 42 c67 -23 154 -110 177 -177 9 -27
17 -77 17 -111 0 -92 -24 -151 -89 -216 -65 -65 -124 -89 -216 -89 -91 0 -148
23 -219 91 l-61 58 90 90 90 91 -79 79 -79 79 38 34 c45 39 79 61 120 76 46
16 155 14 211 -5z m-10881 -64 l60 -60 -53 -50 -54 -49 -63 57 -64 58 52 53
c28 28 54 52 57 52 3 0 32 -27 65 -61z m-117 -204 c1 -1 -26 -32 -59 -69 l-62
-67 -59 58 -58 57 62 63 62 62 55 -51 c31 -29 57 -53 59 -53z m10264 43 l70
-63 -57 -53 -58 -54 -66 66 -66 66 50 50 c27 27 51 50 53 50 2 0 35 -28 74
-62z m351 -100 l-58 -58 -55 56 -55 55 60 54 60 54 53 -52 52 -51 -57 -58z
m-10323 87 l54 -55 -49 -50 c-27 -27 -54 -50 -59 -50 -6 0 -34 23 -63 52 l-53
52 52 53 c29 29 55 53 58 53 3 0 30 -25 60 -55z m-179 -156 c33 -28 59 -56 59
-62 0 -15 -101 -117 -115 -117 -6 0 -35 25 -65 55 l-54 55 24 27 c50 57 84 93
88 93 2 0 31 -23 63 -51z m10339 0 l43 -51 -57 -56 -56 -57 -52 53 -53 52 55
55 c30 30 59 55 66 55 6 0 30 -23 54 -51z"/>
<path d="M1941 1779 c-112 -21 -191 -121 -191 -241 0 -59 17 -103 60 -152 94
-107 251 -110 350 -8 73 76 90 174 46 267 -47 103 -151 155 -265 134z"/>
<path d="M2530 1771 c-65 -23 -134 -91 -150 -149 -14 -52 -12 -127 4 -166 67
-161 280 -203 398 -79 173 182 -15 477 -252 394z"/>
<path d="M3182 1779 c-151 -29 -234 -194 -168 -335 57 -123 206 -175 326 -114
46 24 95 76 114 122 20 46 21 138 2 182 -44 105 -161 167 -274 145z"/>
<path d="M3787 1776 c-138 -37 -215 -197 -156 -326 43 -96 117 -144 219 -144
215 0 320 251 170 405 -33 35 -59 51 -99 63 -64 19 -71 19 -134 2z"/>
<path d="M4421 1779 c-192 -37 -257 -281 -111 -413 35 -32 118 -66 160 -66 9
0 40 7 69 16 62 18 127 73 152 129 22 48 25 142 5 189 -44 105 -162 167 -275
145z"/>
<path d="M5040 1779 c-60 -12 -118 -54 -155 -114 -26 -42 -30 -58 -30 -119 1
-84 24 -137 82 -185 99 -83 240 -74 330 21 44 45 63 96 63 165 -1 154 -136
262 -290 232z"/>
<path d="M5648 1776 c-61 -17 -111 -56 -145 -114 -24 -39 -28 -58 -28 -117 1
-143 94 -238 235 -239 137 -1 240 101 240 239 0 67 -20 118 -63 163 -64 67
-153 92 -239 68z"/>
<path d="M6282 1779 c-141 -27 -222 -170 -180 -313 7 -24 32 -61 58 -88 98
-101 248 -99 347 4 44 45 63 96 63 165 -1 153 -136 262 -288 232z"/>
<path d="M6872 1771 c-159 -55 -214 -254 -104 -381 51 -60 104 -84 182 -84
167 0 277 153 228 318 -18 60 -92 131 -159 150 -66 20 -81 20 -147 -3z"/>
<path d="M7520 1779 c-60 -12 -118 -54 -155 -114 -26 -42 -30 -58 -30 -119 1
-84 24 -137 82 -185 99 -83 240 -74 330 21 44 45 63 96 63 165 -1 154 -136
262 -290 232z"/>
<path d="M8140 1779 c-60 -12 -118 -54 -155 -114 -26 -42 -30 -58 -30 -119 0
-60 4 -79 28 -119 97 -165 330 -164 421 3 98 179 -59 387 -264 349z"/>
<path d="M8770 1781 c-185 -37 -263 -251 -142 -391 51 -60 104 -84 182 -84
100 0 187 57 224 146 20 46 21 138 2 182 -42 102 -162 168 -266 147z"/>
<path d="M9335 1767 c-186 -85 -192 -345 -10 -440 56 -29 155 -29 211 0 95 50
139 129 132 237 -5 77 -37 132 -107 181 -37 26 -52 30 -119 33 -49 1 -88 -3
-107 -11z"/>
<path d="M9935 1751 c-167 -96 -162 -335 8 -422 161 -83 347 33 347 215 -1
141 -98 236 -242 236 -51 0 -73 -6 -113 -29z"/>
<path d="M10562 1754 c-90 -45 -140 -137 -129 -236 28 -236 338 -296 451 -88
25 46 28 60 24 125 -3 62 -8 80 -33 117 -17 23 -50 56 -73 73 -37 25 -54 30
-115 33 -62 3 -79 0 -125 -24z"/>
</g>
</svg>
